<svg width="51" height="86" viewBox="0 0 51 86" fill="none" xmlns="http://www.w3.org/2000/svg">
<path d="M33.125 57.5C29.5 60.2083 25.5833 62.5625 21.375 64.5625C16.1667 62.5625 13.5625 58.8542 13.5625 53.4375C13.5625 51.1042 14.1667 48.9583 15.375 47C17.7917 43.25 21.3125 39.4375 25.9375 35.5625C29.3125 32.7292 31.4583 30.6458 32.375 29.3125C33.75 27.3125 34.4375 25.4583 34.4375 23.75C34.4375 22.0417 34.0833 20.6042 33.375 19.4375C32.6667 18.2292 31.6875 17.2083 30.4375 16.375C27.8958 14.6667 24.6875 13.8125 20.8125 13.8125C15.7292 13.8125 11.1667 15.5417 7.125 19C5.75 20.1667 4.625 21.5833 3.75 23.25L3.3125 23.375C3.4375 21.5417 3.25 19.6875 2.75 17.8125L0.125 8.4375C6.04167 2.85417 13.6875 0.0625 23.0625 0.0625C31.0208 0.0625 37.6667 2.33333 43 6.875C48 11.2083 50.5 16.3958 50.5 22.4375C50.5 25.4375 49.875 28.0208 48.625 30.1875C46.5833 33.7708 43.9167 37.0208 40.625 39.9375C37.3333 42.8125 35.0625 44.8958 33.8125 46.1875C32.5625 47.4792 31.625 48.5625 31 49.4375C30.0417 50.7708 29.5625 52.0417 29.5625 53.25C29.5625 54.4583 29.9167 55.4375 30.625 56.1875C31.375 56.8958 32.2083 57.3333 33.125 57.5ZM31.75 71C31.5833 73.0833 31.5 75.75 31.5 79C31.5 82.2083 31.5833 84.5417 31.75 86H15.1875C15.5208 83.4167 15.6875 80.875 15.6875 78.375C15.6875 75.8333 15.5625 73.375 15.3125 71H31.75Z" fill="black" fill-opacity="0.5"/>
</svg>
